<svg xmlns="http://www.w3.org/2000/svg" xmlns:xlink="http://www.w3.org/1999/xlink" version="1.1" id="Calque_1" x="0px" y="0px" width="231" height="125" xml:space="preserve">
<polygon fill="#FFFFFF" points="3.295,51.54 23.637,51.54 13.466,65.963 "/>
<g>
	<linearGradient id="SVGID_1_" gradientUnits="userSpaceOnUse" x1="113.2808" y1="41.6692" x2="113.2808" y2="62.2034">
		<stop offset="0" style="stop-color:#6FDFE4"/>
		<stop offset="0.4317" style="stop-color:#6BDECD"/>
		<stop offset="1" style="stop-color:#65DDAF"/>
	</linearGradient>
	<path fill="url(#SVGID_1_)" d="M113.324,41.669c-5.708,0-10.225,4.26-10.225,10.31c0,5.964,4.09,10.224,10.225,10.224   c5.879,0,10.139-4.261,10.139-10.224C123.462,45.928,118.947,41.669,113.324,41.669z"/>
	<linearGradient id="SVGID_2_" gradientUnits="userSpaceOnUse" x1="160.0864" y1="41.6692" x2="160.0864" y2="62.2034">
		<stop offset="0" style="stop-color:#6FDFE4"/>
		<stop offset="0.4317" style="stop-color:#6BDECD"/>
		<stop offset="1" style="stop-color:#65DDAF"/>
	</linearGradient>
	<path fill="url(#SVGID_2_)" d="M160.129,41.669c-5.709,0-10.225,4.26-10.225,10.31c0,5.964,4.089,10.224,10.225,10.224   c5.878,0,10.138-4.261,10.138-10.224C170.268,45.928,165.752,41.669,160.129,41.669z"/>
	<linearGradient id="SVGID_3_" gradientUnits="userSpaceOnUse" x1="153.2861" y1="66.1267" x2="153.2861" y2="84.1003">
		<stop offset="0" style="stop-color:#6FDFE4"/>
		<stop offset="1" style="stop-color:#65DDAF"/>
	</linearGradient>
	<path fill="url(#SVGID_3_)" d="M155.614,75.068c-7.441,0-13.579-3.499-17.411-8.941v8.856c0,3.283-0.547,6.209-1.558,8.776   l10.789-5.282c1.619,2.642,5.283,5.623,11.843,5.623c4.175,0,10.651-2.471,10.651-10.224v-3.237   C166.69,74.217,161.578,75.068,155.614,75.068z"/>
	<linearGradient id="SVGID_4_" gradientUnits="userSpaceOnUse" x1="114.9448" y1="12.0002" x2="114.9448" y2="112.9319">
		<stop offset="0" style="stop-color:#6FDFE4"/>
		<stop offset="1" style="stop-color:#65DDAF"/>
	</linearGradient>
	<path fill="url(#SVGID_4_)" d="M198.414,72.091l16.826-23.86C209.093,27.293,189.75,12,166.824,12H63.083   c-22.92,0-42.258,15.283-48.412,36.21h15.634L13.528,72.002c4.46,23.311,24.945,40.93,49.555,40.93h103.74   c24.58,0,45.044-17.575,49.539-40.841H198.414L198.414,72.091z M185.009,74.983c0,14.655-10.821,22.238-25.732,22.238   c-8.734,0-18.704-1.897-23.573-11.418c-4.025,7.549-12.584,11.418-23.233,11.418c-9.118,0-19.596-2.045-24.198-12.694l12.354-6.05   c1.62,2.642,5.283,5.623,11.843,5.623c4.175,0,10.65-2.471,10.65-10.224v-3.237c-3.237,3.577-8.349,4.43-14.314,4.43   c-11.361,0-19.686-8.149-21.396-18.937L66.654,95.944h-17.38l15.081-28.97L43.65,30.082h17.381L73.216,52.49l10.395-22.408h17.382   l-0.095,0.183c2.409-0.942,5.064-1.461,7.91-1.461c5.794,0,10.481,1.875,14.059,5.197h0.256v-3.919h15.082v7.716   c3.833-5.466,9.97-8.994,17.411-8.994c5.793,0,10.48,1.875,14.058,5.197h0.255v-3.919h15.081L185.009,74.983L185.009,74.983z"/>
</g>
<polygon fill="#FFFFFF" points="225.424,68.76 205.083,68.76 215.253,54.339 "/>


</svg>